<svg width="114" height="45" viewBox="0 0 114 45" fill="none" xmlns="http://www.w3.org/2000/svg">
<path fill-rule="evenodd" clip-rule="evenodd" d="M20.6137 21.5625C25.2986 20 28.2658 16.0938 28.2658 11.25C28.2658 5.78125 24.2055 0 15.1479 0C8.7452 0 2.1863 3.75 2.03014 11.0938C2.03014 15.4688 4.68493 19.375 8.90137 21.25L9.68219 21.4062C3.74795 22.9688 0 27.5 0 32.8125C0 38.5938 4.68493 45 15.1479 45C25.611 45 30.2959 38.75 30.2959 32.8125C30.2959 27.3438 26.7041 23.125 20.6137 21.5625ZM26.3918 11.0938C26.3918 15.9375 22.9562 20.625 15.1479 20.625C9.68219 20.625 3.90411 17.6562 3.90411 11.0938C3.90411 4.53125 9.68219 1.5625 15.1479 1.5625C20.6137 1.71875 26.3918 4.6875 26.3918 11.0938ZM15.1479 22.5C24.3616 22.5 28.5781 27.9688 28.5781 32.9688C28.5781 40 21.5507 43.2812 15.1479 43.2812C5.93425 43.2812 1.71781 37.9688 1.71781 32.9688C1.71781 27.8125 5.93425 22.5 15.1479 22.5ZM52.7836 41.25L69.337 2.1875H71.211L53.2521 44.0625H52.0027L34.2 2.03125H36.074L52.7836 41.25ZM95.5726 44.6875C104.318 44.6875 111.033 39.6875 113.844 34.8438H111.97C110.877 36.4062 105.411 43.125 95.5726 43.125C84.4849 43.125 75.5836 34.5312 75.5836 22.9688C75.5836 11.4062 84.4849 2.8125 95.5726 2.8125C104.786 2.8125 110.408 9.21875 111.97 11.4062H114C110.877 6.5625 104.63 1.40625 95.5726 1.25C83.5479 1.25 73.8658 10.3125 73.8658 22.9688C73.8658 35.625 83.7041 44.6875 95.5726 44.6875Z" fill="#052424"/>
</svg>
