<?xml version="1.0" encoding="UTF-8"?>
<svg id="Layer_2" data-name="Layer 2" xmlns="http://www.w3.org/2000/svg" viewBox="0 0 428.48 134.05">
  <defs>
    <style>
      .cls-1 {
        fill: #0a2425;
      }
    </style>
  </defs>
  <g id="Layer_1-2" data-name="Layer 1">
    <g id="LwiKO7.tif">
      <g>
        <path class="cls-1" d="M88.14,0c13.56,2.06,11.84,15.76,4.27,23.77-3.86,4.09-10.23,5.07-9.44-2.41.43-4.11,4.18-7.69,8.15-8.43,1.47-.28,2.29.28,2.53-1.82.83-7.31-8.88-4.5-12.66-2.94-15.13,6.26-32.4,26.19-41.73,39.47s-21.39,35.76-20.64,52.86c.99,22.61,20.03,25.09,38.42,22.31,32.85-4.97,73.21-24.2,105.07-7.03,7.92,4.27,15.67,10.32,22.08,16.59l1.17,1.68c-7.57-5.05-16.36-8.37-25.46-9.37s-17.02-.22-23.45,6.86c-.27.3-1.19,1.75-1.5,1.68-10.09-16.61-31.9-15.35-48.69-12.5-16.58,2.81-34.55,9.71-51.13,10.33C13.17,131.85-.78,118.37.03,96.3c.81-21.92,12.59-43.07,26.55-59.32C39.65,21.77,63.71,1.36,84.46,0h3.68Z"/>
        <path class="cls-1" d="M400.01,97.56c.04.32-.19.51-.33.75-3.45,5.96-9.77,13.74-14.49,18.83-4.65,5.01-14.84,14.91-22.11,14.22-5.46-.52-6.04-6.18-5.28-10.54-4.09,3.73-10.55,9.94-16.32,10.38-7.95.61-10-6.75-8.63-13.23-4,4.2-8.56,9.46-13.9,11.97-6.71,3.16-13,.01-13.57-7.54-.67-8.91,3.68-18.39,6.36-26.69-2.47.6-5.01.86-7.54,1.08-4.76,8.46-9.91,16.15-16.99,22.85-5.23,4.95-16.59,14.6-24.15,10.74-7.11-3.63-4.82-14.54-2.85-20.65,3-9.3,8.8-18.18,15.11-25.57,5.71-6.68,17.74-18.46,26.8-19.24,16.27-1.4,8.58,19.74,4.27,27.53.03.54,2.45.11,2.88.03,1.58-.28,3.21-.88,4.7-1.45,8.51-16.98,17.87-33.72,29.94-48.45,6.47-7.9,13.78-15.99,21.18-23.02,5.96-5.66,18.5-16.77,26.68-17.69,2.11-.24,5.73,0,6.77,2.18,1.85,3.9-1.58,11.18-3.2,14.89l-5.04,1.28c1.5-3.27,3.47-6.46,4.31-10,.44-1.89.87-3.96-1.93-3.27-3.64.9-12.21,9.11-15.11,12.01-12.56,12.58-23.26,27.32-32.56,42.44-3.75,6.1-7.97,13.04-10.96,19.51-.07.15-.36.43-.11.56,5.05-3.05,9.59-6.89,13.99-10.79,11.18-9.92,21.54-21.11,30.72-32.9l.35-.15c1.45.07,2.87-.27,4.31-.38.2-.02.33-.33.29.13-15.31,19.85-33.19,38.5-54.22,52.35-2.92,6.46-6.34,13.39-7.84,20.36-.57,2.63-2,9.79,2.67,9.19,3.18-.41,8.67-7.59,10.55-10.21,9.11-12.67,16.97-26.7,29.17-36.79,6.08-5.04,17.53-11.99,23.03-2.52.25.06.27-.04.41-.18.72-.73,1.24-2.25,2.02-3h13.32c-.5,1.14-1.19,2.22-1.81,3.29-8.24,14.11-17.32,28.19-25.18,42.45-.4.72-.84,1.43-1.17,2.18-.52,1.17-1.82,4.48.53,4.23,3.82-.41,10.27-7.77,12.72-10.73,2.78-3.35,5.22-6.95,7.79-10.46h4.44ZM302.82,71c-4,.54-8.77,5.34-9.46,9.29-.85,4.85,2.77,9.53,7.21,11.12,1.39.5,1.65.57,2.43-.65,2.54-4,7.04-14.19,3.71-18.37-1.03-1.29-2.26-1.6-3.89-1.38ZM380.7,72c-4.47.7-13.14,11.08-16.03,14.78-4.76,6.08-9.79,13.83-12.93,20.88-1.11,2.49-4.74,10.72.3,10.98,3.06.16,7.09-4.81,8.84-7.04,8.93-11.4,15.81-24.89,23.39-37.21.58-2.3-1.76-2.68-3.57-2.4ZM288.38,86.02c-3.85,5.27-7.81,10.58-10.61,16.51-1.62,3.44-5.48,12.44-1.52,15.19,2.63,1.83,6.01-.37,8.18-2.01,5.04-3.82,9.84-10.27,13.15-15.64.38-.61,2.22-3.52,2.25-3.95.02-.17-.03-.2-.14-.3-.44-.39-2.16-1.1-2.84-1.52-2.1-1.31-4.35-3.04-5.96-4.92-.75-.87-1.47-2.39-2.12-3.07-.12-.12-.15-.34-.39-.28Z"/>
        <path class="cls-1" d="M197.85,66.1c-3.15,4.37-6.4,8.69-9.89,12.8-5.24,6.18-17.55,19.77-26.04,19.85-5.81.05-7.21-5.26-6.28-10.06-3.27,3.3-6.94,6.69-11.27,8.56-4.62,2-11.73,2.58-13.26-3.54-.99-3.94.26-8.07,1.26-11.88-1.86,1.43-3.43,3.21-5.19,4.77-7.66,6.78-21.74,17.63-31.74,9.28-6.43-5.37-4.3-15.47-1.72-22.29,1.7-4.48,4.28-8.53,6.32-12.84l-6.82,1.72c-5.37,8.77-10.73,17.24-18.21,24.39-6,5.74-20.31,17.85-27.79,8.35-6.76-8.57,1.95-25.65,7.03-33.44,6.56-10.05,22.67-28.55,35.32-29.47,11.65-.85,11.68,9.5,9.18,17.87-.74,2.48-1.84,4.81-2.72,7.23,2.02-.2,3.98-1.08,5.74-2.04,11.43-6.18,22.56-24.46,36.84-22.85,5.13.58,8.37,4.61,7.98,9.72-.35,4.55-5.66,15.03-11.1,14.48-1.36-.14-3.08-1.54-3.27-2.92-.63-4.53,4.79-10.87,9.68-10.13,1.15-3.01-.51-5.21-3.71-4.79-5.48.72-15.07,11.53-18.35,15.97-4.38,5.91-12.01,19.02-12.59,26.25-.35,4.42,1.21,8.38,6.29,8.12,7.18-.37,18.2-12.78,22.68-18.17,9.45-11.34,24.88-35.46,40.03-38.32,4.25-.8,6.72.45,9.47,3.6l1.42-2.34h13.57l-27.66,46.08c-.65,1.25-2.98,5.82-.06,5.64s8.8-6.3,10.89-8.54c3.3-3.53,6.23-7.39,9.38-11.05h4.61ZM90.28,38.53c-2.91.4-6.4,3.38-7.94,5.79-2.92,4.59-1.69,9.01,2.9,11.7,1.25.73,4.88,2.53,5.99,1.2.57-.69,1.62-3.24,2.01-4.18,1.44-3.48,3.68-10.2.84-13.38-1.07-1.2-2.25-1.34-3.81-1.13ZM180.57,38.87c-5.57.12-12.63,9.98-15.88,14.11-5.5,7.02-15.41,20.03-17.02,28.68-.56,2.99.46,5.36,3.91,4.24,4.8-1.56,12.52-13.54,15.35-17.97,5.63-8.81,10.75-17.96,16.05-26.98.07-1.35-1.17-2.11-2.42-2.08ZM76,52.89c-3.85,5.37-7.95,10.83-10.78,16.84-1.63,3.46-4.98,11.46-2.03,14.7s8.27-.83,10.72-3.01c4.73-4.21,8.92-10.14,12.29-15.5.34-.54,2.23-3.46,2.25-3.78.02-.23-.09-.26-.25-.37-.65-.43-2.72-.97-3.64-1.38-3.69-1.66-6.62-3.9-8.57-7.5Z"/>
        <path class="cls-1" d="M304.72,8.88c1.3,8.92-2.69,18.15-7.31,25.58-4.68,7.51-14.63,20.12-24.59,19.07-9.19-.97-5.64-12.59-3.1-17.95,4.92-10.36,13.07-18.33,22.2-25.01.76-.56,5.43-3.5,5.58-3.8s-.24-.25-.37-.29c-7.48-2.46-20.78,7.28-26.5,11.77-21.39,16.75-44.93,47.3-52.77,73.46-2.39,7.97-6.4,23.18,3.09,28.03,10.48,5.36,22.43-6.88,28.47-14.23,5.5-6.69,10.42-14.99,12.28-23.54.84-3.85,1.83-11.46-4.45-10.13-7.83,1.66-12.92,14.18-14.41,21.17-6.79,2.79-12.51,7.62-17.63,12.76-.11-3.07.81-6.42,1.68-9.37,3.28-11.14,9.01-21.57,19.23-27.64,13.9-8.26,23.07-2.51,19.63,13.75-4.12,19.46-24.09,44.85-44.6,48.15-12.95,2.08-22.18-4.88-24.27-17.66-3.57-21.79,13.77-49.26,26.68-65.79,12.95-16.57,30.47-32.84,49.75-41.66,8.48-3.88,20.78-8.14,28.78-1.25,3.33-1.26,6.75-2.32,10.27-2.9,12.89-2.15,21.01.8,31.97,6.95,5.85,3.28,11.43,7.05,17.47,9.99l-10.3,10.41c-10.94-5.3-20.06-13.91-31.41-18.44-4.94-1.97-10.18-3.12-15.39-1.41ZM300.52,10.38c-.44-.46-6.82,3.82-7.59,4.38-7.82,5.71-18.83,17.82-21.47,27.25-2.24,7.99,2.75,9.1,8.65,5.29,7.91-5.1,15.05-15.18,18.24-23.95,1.49-4.11,2.65-8.58,2.17-12.97Z"/>
        <path class="cls-1" d="M368.02,34.81c-.13-.11.55-.93.67-1.08,2.75-3.56,6.15-6.91,9.21-10.21.58-.28,1.17.07,1.75.09,18.53.42,36.11-10.34,48.83-22.93-.8,1.67-1.77,3.29-2.78,4.84-12.06,18.59-34.67,33.51-57.69,29.3Z"/>
        <polygon class="cls-1" points="223.31 33.97 216.02 45.69 203.37 45.69 210.22 34.53 210.41 33.97 223.31 33.97"/>
      </g>
    </g>
  </g>
</svg>