<svg width="2500" height="2500" viewBox="0 0 2500 2500" fill="none" xmlns="http://www.w3.org/2000/svg">
<path d="M1250 2500C1237.58 2500 1225.2 2499.78 1212.85 2499.42L1468.31 1797.35H1819.87C1881.58 1797.35 1949.32 1749.91 1970.42 1691.96L2247.56 930.694C2292.91 806.059 2221.52 704.091 2088.9 704.091H1601.17L1191.96 1828.61H1191.8L959.797 2466.06C409.398 2335.22 0 1840.44 0 1250C0 676.591 386.111 193.403 912.517 46.1458L673.137 704.091H673.067L275.116 1797.35L540.029 1797.37L878.455 868.38H1077.56L739.132 1797.37L1003.95 1797.42L1319.33 930.694C1364.7 806.059 1293.3 704.091 1160.8 704.091H938.119L1193.81 1.31366C1212.44 0.486111 1231.16 0 1249.99 0C1940.35 0 2499.99 559.641 2499.99 1250C2499.99 1940.35 1940.35 2500 1249.99 2500H1250ZM2006.32 867.708H1807.27L1528.53 1632.51H1727.58L2006.32 867.708Z" fill="#0A2425"/>
</svg>
