<svg width="170" height="44" viewBox="0 0 170 44" fill="none" xmlns="http://www.w3.org/2000/svg">
<path fill-rule="evenodd" clip-rule="evenodd" d="M32.1277 16.1794C33.5986 19.5856 35.3017 22.837 37.237 26.0109C38.7078 23.4563 40.1013 20.7468 41.2625 18.0374C38.2434 17.2632 35.1468 16.6439 32.1277 16.1794ZM36.6177 1.70311C33.676 1.08381 30.5794 0.619325 27.5603 0.387085C28.4119 5.49637 29.8053 10.7605 31.818 15.5601C33.7534 11.225 35.4565 6.42534 36.6177 1.70311ZM37.0047 1.78053C37.8563 7.19947 39.2497 12.541 41.4173 17.5729C43.1978 13.2377 44.5139 8.67033 45.3654 4.10293C42.5785 3.17397 39.869 2.39984 37.0047 1.78053Z" fill="#052424"/>
<path fill-rule="evenodd" clip-rule="evenodd" d="M22.9905 31.8169C24.6162 33.9845 26.3967 36.1521 28.2546 38.1648C29.8029 36.5392 31.3512 34.7587 32.7446 32.9007C29.4932 32.204 26.2419 31.8169 22.9905 31.8169ZM27.2482 24.5401C25.7 24.3852 24.2291 24.3852 22.6808 24.3852C21.1326 24.3852 19.6617 24.4627 18.1909 24.5401C19.5843 26.8625 21.0552 29.2623 22.7583 31.5073C24.3065 29.2623 25.8548 26.8625 27.2482 24.5401ZM27.7901 24.5401C29.4158 27.2495 31.1189 30.0364 32.9768 32.5911C34.5251 30.5783 35.996 28.4107 37.312 26.2432C34.138 25.3916 31.0415 24.8497 27.7901 24.5401ZM17.8812 24.0756C19.5069 21.2113 21.0552 18.2696 22.3712 15.2505C19.4295 15.2505 16.4878 15.4827 13.5461 15.7923C14.8621 18.7341 16.3329 21.4435 17.8812 24.0756ZM27.4805 24.0756C29.0288 21.3661 30.4996 18.6566 31.8156 15.7923C28.8739 15.4053 25.9322 15.2505 22.9905 15.2505C24.3065 18.347 25.8548 21.2887 27.4805 24.0756ZM8.43677 1.47086C9.52056 6.19308 11.3011 10.9153 13.2364 15.4053C15.2492 10.6056 16.5652 5.34153 17.4941 0.23224C14.475 0.387067 11.3785 0.851548 8.43677 1.47086ZM17.8812 0.154827C19.0424 5.10929 20.7455 10.1412 22.6808 14.786C24.6936 10.1412 26.3193 5.10929 27.4805 0.154827C25.9322 0.0774135 24.2291 0 22.6808 0C21.1326 0 19.4295 0.0774135 17.8812 0.154827Z" fill="#052424"/>
<path fill-rule="evenodd" clip-rule="evenodd" d="M17.9599 38.2419C19.5856 39.945 21.3661 41.5707 23.1466 43.0416C24.9271 41.5707 26.7076 39.945 28.3333 38.2419C26.6302 38.0097 24.8497 37.8549 23.1466 37.8549C21.4435 37.8549 19.663 38.0097 17.9599 38.2419ZM13.0829 32.6682C14.4763 34.4487 16.0246 36.2292 17.5729 37.8549C19.4308 35.8421 21.2113 33.752 22.837 31.5844C19.5856 31.5844 16.2568 31.9714 13.0829 32.6682ZM18.0373 24.3849C14.786 24.6946 11.612 25.2365 8.43807 26.0106C9.7541 28.1782 11.225 30.3458 12.7732 32.3585C14.7086 29.8039 16.4117 27.0944 18.0373 24.3849ZM4.18033 17.7274C5.34153 20.4368 6.65756 23.0689 8.20583 25.6235C10.1412 22.527 11.9217 19.2756 13.3151 15.9469C10.296 16.3339 7.19945 16.8758 4.18033 17.7274ZM0 3.94777C0.851548 8.51517 2.24499 13.0051 4.0255 17.2629C6.19308 12.3084 7.50911 6.9669 8.43807 1.62537C5.49636 2.24467 2.78689 3.01881 0 3.94777Z" fill="#052424"/>
<path fill-rule="evenodd" clip-rule="evenodd" d="M140.505 23.6881C142.982 23.6881 143.679 22.3721 143.679 21.2109C143.679 19.8175 142.75 18.7337 140.505 18.7337C138.337 18.7337 137.331 19.8175 137.331 21.2109C137.408 22.4495 138.182 23.6881 140.505 23.6881ZM138.492 31.7391C137.718 31.9714 136.789 32.6681 136.789 33.5197C136.789 34.9131 138.415 35.5324 140.892 35.5324C142.672 35.5324 144.762 34.8357 144.762 33.4422C144.762 32.5133 143.524 32.281 142.13 32.1262L138.492 31.7391ZM148.943 18.6563H146.311C146.388 18.7337 147.162 19.8175 147.162 21.3657C147.162 24.9268 144.298 26.5524 140.969 26.5524C140.35 26.5524 139.885 26.475 139.421 26.475C138.956 26.475 138.492 26.7847 138.492 27.3266C138.492 27.7136 138.802 28.1007 139.576 28.1781L144.375 28.72C147.007 28.9523 148.633 30.3457 148.633 32.7455C148.633 34.9131 146.853 38.3967 140.66 38.3967C134.544 38.3967 132.996 36.2291 132.996 34.3712C132.996 33.0552 133.615 31.5843 136.324 30.965V30.8876C136.092 30.8102 134.312 30.3457 134.312 28.4878C134.312 26.5524 136.247 26.0105 136.634 25.9331V25.8557C135.86 25.5461 133.615 24.5397 133.615 21.0561C133.615 18.5014 135.086 15.7146 141.356 15.7146H149.02V18.6563H148.943ZM124.79 24.3849C121.616 24.3849 120.455 25.0816 120.455 26.3976C120.455 27.3266 121.074 28.2555 122.7 28.2555C124.325 28.2555 125.951 27.2492 125.951 24.4623H124.79V24.3849ZM126.028 20.7464C126.028 19.1207 124.867 18.3466 122.932 18.3466C122.003 18.3466 120.842 18.7337 120.609 18.8111V20.8238H117.126V16.9532C117.668 16.7209 120.068 15.4049 123.009 15.4049C127.422 15.4049 129.822 17.4176 129.822 21.2109C129.822 23.6881 129.822 27.9459 129.822 27.9459H132.299V30.8876H126.648L126.57 28.72H126.493C126.261 29.0297 124.945 31.1972 121.538 31.1972C118.132 31.1972 116.507 29.1845 116.507 26.7847C116.507 23.5333 119.371 21.9076 124.17 21.9076H126.106V20.7464H126.028ZM110.004 21.4431C110.004 19.353 108.843 18.1918 106.907 18.1918C105.049 18.1918 103.966 19.4304 103.811 21.4431H110.004ZM103.888 24.23C103.966 26.6299 106.056 28.1007 108.92 28.1007C111.01 28.1007 112.558 27.4814 112.946 27.3266L113.875 30.1135C113.178 30.3457 111.165 31.2747 107.836 31.2747C102.03 31.2747 99.553 27.6362 99.553 23.4559C99.553 18.7337 102.417 15.4823 107.14 15.4823C112.636 15.4823 114.339 19.8949 114.339 23.2237C114.339 23.7656 114.262 24.23 114.262 24.3074H103.888V24.23ZM160.632 21.4431C160.632 19.353 159.471 18.1918 157.536 18.1918C155.678 18.1918 154.594 19.4304 154.439 21.4431H160.632ZM154.439 24.23C154.594 26.6299 156.607 28.1007 159.471 28.1007C161.561 28.1007 163.109 27.4814 163.497 27.3266L164.425 30.1135C163.729 30.3457 161.716 31.2747 158.387 31.2747C152.581 31.2747 150.104 27.6362 150.104 23.4559C150.104 18.7337 152.968 15.4823 157.691 15.4823C163.187 15.4823 164.89 19.8949 164.89 23.2237C164.89 23.7656 164.813 24.23 164.813 24.3074H154.439V24.23ZM81.5931 18.6563H78.8836V15.7146H85.3089L85.3863 18.037H85.4638C85.6186 17.7273 86.8572 15.4049 90.2634 15.4049C93.5922 15.4049 95.7598 17.5725 95.7598 21.2109V27.9459H98.5466V30.8876H91.7343V22.0625C91.7343 20.669 90.8827 18.8111 88.6377 18.8111C86.7024 18.8111 85.5412 20.2819 85.5412 22.0625V27.8685H88.3281V30.8102H81.5157L81.5931 18.6563ZM73.8517 8.20544C75.5548 8.20544 76.5612 9.21182 76.5612 10.6827C76.5612 12.1535 75.5548 13.1599 73.8517 13.1599C72.1486 13.1599 71.1423 12.1535 71.1423 10.6827C71.1423 9.21182 72.2261 8.20544 73.8517 8.20544ZM71.9938 18.6563H69.2843V15.7146H76.0193V27.8685H78.8062V30.8102H71.9938V18.6563ZM64.9492 24.23H68.4328V30.8102H54.9629V13.547H52.4082V10.6053H59.2206V27.8685H65.0266V24.23H64.9492Z" fill="#052424"/>
<path fill-rule="evenodd" clip-rule="evenodd" d="M167.832 15.5594C166.826 15.5594 165.974 16.411 165.974 17.3399C165.974 18.3463 166.826 19.1204 167.832 19.1204C168.839 19.1204 169.69 18.2689 169.69 17.3399C169.69 16.3335 168.839 15.5594 167.832 15.5594ZM167.832 19.5075C166.671 19.5075 165.665 18.5785 165.665 17.3399C165.665 16.1787 166.594 15.2498 167.832 15.2498C168.994 15.2498 170 16.1787 170 17.3399C169.923 18.5785 168.994 19.5075 167.832 19.5075Z" fill="#052424"/>
<path fill-rule="evenodd" clip-rule="evenodd" d="M167.445 17.0306C167.755 17.0306 167.91 16.8757 167.91 16.7209C167.91 16.4887 167.755 16.4113 167.368 16.4113H167.058V17.108L167.445 17.0306ZM167.136 18.2692H166.439V15.9468H167.523C168.219 15.9468 168.607 16.2564 168.607 16.7209C168.607 17.0306 168.452 17.2628 168.065 17.4176L168.761 18.2692H167.987L167.445 17.495H167.136V18.2692Z" fill="#052424"/>
</svg>
