<svg width="118" height="46" viewBox="0 0 118 46" fill="none" xmlns="http://www.w3.org/2000/svg">
<path d="M11.2788 19.5032H18.7192L23.0031 25.5156V19.5032H30.0678V33.7828H23.4541L18.3435 27.3194H18.2683V33.7828H11.2788V19.5032Z" fill="#052424"/>
<path d="M33.0737 19.5032H48.8565V24.4635H40.2887V25.8163H48.8565V30.2505H40.2887V33.7828H33.0737V19.5032Z" fill="#052424"/>
<path d="M59.3784 19.5032H51.8628V33.7828H59.3784V19.5032Z" fill="#052424"/>
<path d="M90.1924 26.7932C40.4392 61.6656 -22.5414 38.2921 8.04702 24.764C-9.38914 42.7263 50.961 53.1729 86.5849 27.4696C87.8625 27.0187 89.2905 26.7181 90.1924 26.7932Z" fill="#052424"/>
<path d="M35.8547 14.2423C29.6919 11.4615 22.026 11.9124 15.7881 14.0919C41.1156 -4.62186 92.2967 -4.69701 118 13.8665C94.4763 3.49497 56.748 -1.01438 35.8547 14.2423Z" fill="#052424"/>
<path d="M61.6331 20.2548V25.5157C61.6331 25.5157 62.2343 26.9436 63.1362 27.7703V22.284C63.1362 22.284 62.1591 21.9082 61.6331 20.2548Z" fill="#052424"/>
<path d="M72.9065 22.9603V28.5218C72.9065 28.5218 73.8084 27.7703 74.4096 26.1168V21.0062C74.4096 21.0062 74.0338 22.359 72.9065 22.9603Z" fill="#052424"/>
<path d="M63.8879 22.5094V27.62C63.8879 27.62 64.1886 28.2212 66.3681 28.3716L66.5935 26.3423L68.3973 28.5219C68.3973 28.5219 69.0737 28.7473 71.4035 27.8455V22.6597C71.4035 22.6597 70.8774 23.261 68.6228 23.261L68.3973 25.215L66.5935 23.1858C66.5935 23.1106 65.6165 23.1858 63.8879 22.5094Z" fill="#052424"/>
<path d="M65.541 29.2734L64.6392 33.0312L67.7957 31.6784L70.6516 33.0312L70.1255 29.4237C70.1255 29.4237 69.374 29.6492 68.6224 29.4988L67.4199 27.7703L67.2696 29.4988C67.1945 29.574 66.8938 29.6492 65.541 29.2734Z" fill="#052424"/>
<path d="M68.5474 20.2548C68.4723 20.1045 68.3219 19.5784 67.7207 19.5032C67.1195 19.4281 66.9691 19.6535 66.894 19.8038C66.8188 19.9541 66.7437 19.9541 66.6685 19.9541C66.5934 19.9541 65.917 19.9541 65.917 19.9541C65.8418 19.9541 65.7666 20.1045 65.6915 20.1796L65.3909 21.0815C65.3909 21.0815 65.6163 20.9312 65.6915 20.9312C66.0673 21.0063 66.7437 21.0815 66.6685 21.3069C66.5934 21.5324 66.2176 23.5616 66.2176 23.5616L66.5934 23.6368C66.7437 23.6368 66.8188 23.7871 66.8188 23.7871L68.0213 25.4405C68.0213 25.4405 68.1716 24.0126 68.1716 23.9374C68.1716 23.7871 68.3219 23.7871 68.3219 23.7871L69.0735 23.7119C69.0735 23.7119 68.6226 20.4051 68.5474 20.2548ZM67.3449 20.4051C67.1946 20.4051 67.0443 20.2548 67.0443 20.1796C67.0443 20.0293 67.1946 19.9541 67.2698 19.9541C67.4201 19.9541 67.5704 20.1045 67.5704 20.1796C67.6455 20.2548 67.5704 20.4051 67.3449 20.4051Z" fill="#052424"/>
</svg>
