<svg width="181" height="34" viewBox="0 0 181 34" fill="none" xmlns="http://www.w3.org/2000/svg">
<path d="M28.7319 18.5525C26.3563 20.5887 27.3744 23.7562 28.3926 25.5662C29.6369 27.8287 28.0532 31.1093 25.9038 33.0324C30.9944 30.0912 34.5013 24.6612 34.7276 18.3262C33.1438 17.0818 30.4288 17.0818 28.7319 18.5525Z" fill="#052424"/>
<path d="M16.6283 23.5297C13.2346 20.7016 10.2933 22.0591 8.37019 24.4347C6.33394 26.8103 9.16206 27.6022 12.8952 28.394C15.7233 29.0728 15.3839 33.0322 15.7233 33.9372C19.1171 28.394 18.0989 24.8872 16.6283 23.5297Z" fill="#052424"/>
<path d="M21.9482 5.99476C27.6045 10.5198 22.627 12.7823 22.627 12.7823C25.9076 15.6104 29.1882 10.1804 32.6951 13.2348C33.6001 14.0266 34.2789 15.0448 34.6182 16.0629C34.0526 8.82288 29.0751 2.82726 22.4007 0.791016C19.7989 1.92226 18.6676 3.50601 21.9482 5.99476Z" fill="#052424"/>
<path d="M8.14499 21.4937C6.90062 17.8737 8.48437 16.29 14.1406 12.2175C21.2675 7.12687 10.1812 8.93687 14.7062 4.29875C16.29 2.715 18.5525 1.3575 20.2494 0.22625C19.2312 0.113125 18.3262 0 17.3081 0C7.80562 0 0 7.91874 0 17.6475C0 17.9869 0 18.4394 0 18.7787C2.60187 21.2675 5.88249 22.8512 8.14499 21.4937Z" fill="#052424"/>
<path d="M43.7786 7.9187H51.0186C53.9598 7.9187 56.5617 7.9187 58.1454 10.1812C58.8242 11.1993 59.1636 12.6699 59.1636 13.9143C59.1636 14.9324 58.9373 15.9506 58.5979 16.7424C57.0142 20.0231 53.7336 20.1362 51.2448 20.1362H48.3036V26.1318H43.7786V7.9187ZM48.3036 11.1993V16.7424H51.0186C52.7154 16.7424 54.7517 16.7424 54.7517 13.9143C54.7517 11.1993 52.4892 11.1993 51.1317 11.1993H48.3036Z" fill="#052424"/>
<path d="M61.6531 7.80615H69.7981C71.7212 7.80615 74.0968 7.80615 75.6806 9.61615C76.4724 10.5211 77.1512 11.9918 77.1512 13.6886C77.1512 17.4218 74.6624 18.3268 73.4181 18.7793L77.6037 26.1324H72.6262L69.0062 19.5711H66.1781V26.1324H61.6531V7.80615ZM66.1781 11.313V16.2905H69.9112C70.5899 16.2905 72.6262 16.1774 72.6262 13.8018C72.6262 11.4261 70.9293 11.4261 70.0243 11.313H66.1781Z" fill="#052424"/>
<path d="M88.2391 26.6975C82.4697 26.6975 79.3022 22.2856 79.3022 16.9688C79.3022 11.9913 82.3566 7.35315 88.2391 7.35315C89.2572 7.35315 90.3885 7.46627 91.5197 7.91877C96.9497 9.8419 97.2891 15.8375 97.2891 17.0819C97.2891 20.2494 95.8185 23.0775 93.8954 24.6613C92.0854 26.245 90.0491 26.6975 88.2391 26.6975ZM91.2935 12.4438C90.5016 11.6519 89.3704 11.0863 88.126 11.0863C85.411 11.0863 83.601 13.575 83.601 16.8556C83.601 21.1544 85.9766 22.8513 88.126 22.8513C90.2754 22.8513 92.5379 21.2675 92.651 17.4213C92.8772 15.4981 92.3116 13.575 91.2935 12.4438Z" fill="#052424"/>
<path d="M121.724 26.5844C116.181 26.5844 112.674 22.625 112.674 16.9688C112.674 10.1813 117.312 7.35315 121.724 7.35315C126.815 7.35315 130.774 10.86 130.774 16.7425C130.887 22.2856 127.72 26.5844 121.724 26.5844ZM121.837 9.3894C117.312 9.3894 115.389 12.8963 115.389 17.0819C115.389 20.9281 117.199 24.7744 121.951 24.7744C126.815 24.7744 128.399 20.7019 128.399 16.9688C128.286 12.4438 126.023 9.3894 121.837 9.3894Z" fill="#052424"/>
<path d="M156.226 7.80615V26.1324H153.85V7.80615H155.094H156.226Z" fill="#052424"/>
<path d="M166.405 17.7602C163.803 17.1946 159.957 16.2896 159.957 12.5564C159.957 10.7464 160.975 9.61519 161.654 9.04957C163.238 7.69207 165.274 7.46582 166.518 7.46582C167.763 7.46582 169.686 7.57894 171.383 8.82332C173.193 10.1808 173.532 11.9908 173.758 13.1221L171.383 13.2352C171.383 12.6696 171.269 11.1989 169.912 10.1808C169.007 9.50207 167.876 9.27582 166.744 9.27582C164.595 9.27582 162.672 10.1808 162.672 12.1039C162.672 14.1402 164.708 14.5927 166.179 14.9321L168.215 15.4977C169.573 15.8371 170.364 15.9502 171.043 16.2896C173.758 17.4208 174.211 19.6833 174.211 20.8146C174.211 22.5114 173.532 24.0952 171.948 25.2264C170.251 26.4708 168.102 26.4708 167.084 26.4708C165.5 26.4708 159.844 26.2446 159.391 20.1358L161.993 19.7964C161.993 20.4752 162.106 22.0589 163.464 23.3033C164.482 24.2083 165.839 24.5477 167.197 24.5477C169.799 24.5477 171.722 23.3033 171.722 20.9277C171.722 18.7783 170.025 18.2127 168.328 17.8733L166.405 17.7602Z" fill="#052424"/>
<path d="M133.488 16.9688C133.488 11.1994 137.673 7.35315 142.877 7.35315C146.158 7.35315 148.42 8.82377 150.004 10.7469L148.194 11.8781C147.063 10.4075 145.139 9.27627 142.877 9.27627C138.918 9.27627 135.863 12.3306 135.863 16.8556C135.863 21.2675 138.918 24.435 142.877 24.435C145.026 24.435 146.836 23.4169 147.854 22.3988V18.4394H142.651V16.4031H150.117V23.3038C148.42 25.2269 145.931 26.4713 142.877 26.4713C137.673 26.5844 133.488 22.7381 133.488 16.9688Z" fill="#052424"/>
<path d="M102.489 23.983H111.879V26.1324H100.001V7.80615H102.376V23.983H102.489Z" fill="#052424"/>
<path d="M178.738 11.9908C177.493 11.9908 176.475 10.9727 176.475 9.72832C176.475 8.48394 177.493 7.46582 178.738 7.46582C179.982 7.46582 181 8.48394 181 9.72832C181 10.9727 179.982 11.9908 178.738 11.9908ZM178.738 7.8052C177.719 7.8052 176.814 8.59707 176.814 9.72832C176.814 10.7464 177.606 11.6514 178.738 11.6514C179.756 11.6514 180.661 10.8596 180.661 9.72832C180.661 8.71019 179.869 7.8052 178.738 7.8052Z" fill="#052424"/>
<path d="M177.947 8.48438H178.738C179.078 8.48438 179.304 8.48438 179.53 8.71063C179.643 8.82375 179.757 9.05 179.757 9.27625C179.757 9.72875 179.417 9.955 179.304 9.955L179.87 10.9731H179.304L178.852 10.0681H178.399V10.9731H177.947V8.48438ZM178.399 8.82375V9.61562H178.512C178.625 9.61562 178.738 9.61562 178.852 9.61562C178.965 9.61562 179.304 9.61562 179.304 9.27625C179.304 9.27625 179.304 9.05 179.078 8.93688C178.965 8.93688 178.852 8.93688 178.625 8.93688L178.399 8.82375Z" fill="#052424"/>
</svg>
