<svg width="147" height="41" viewBox="0 0 147 41" fill="none" xmlns="http://www.w3.org/2000/svg">
<path d="M41.921 0.0150146H56.1046C61.2649 0.0150146 63.9449 1.63217 62.9755 6.24406C62.3768 9.05911 60.7803 11.2153 57.017 12.0988V12.1736C59.2835 12.3982 60.3241 13.4164 60.4382 15.3181C60.5379 17.4444 59.7397 20.9183 60.0533 24.6168H50.7448C50.5737 22.79 50.9158 19.6754 51.0299 17.5492C51.1012 16.3363 50.5737 15.8272 49.0484 15.8272H47.9651L46.1547 24.5718H36.8462L41.921 0.0150146ZM49.8895 10.257C51.6999 10.257 53.1681 9.59816 53.553 7.77137C53.9379 5.97453 52.7832 5.57025 50.9016 5.57025H50.0605L49.0912 10.2121H49.8895V10.257Z" fill="#052424"/>
<path d="M65.5694 25.1258L62.5046 7.51678H71.0006L71.3427 16.8903H71.414L75.5621 7.51678H83.5734L70.7867 31.1303H62.1055L65.5694 25.1258ZM92.1977 22.6402C90.3873 24.5868 88.3346 25.1258 86.5242 25.1258C82.4758 25.1258 80.252 21.9364 81.5065 15.8571C82.8322 9.37352 86.5527 6.9927 90.1877 6.9927C92.0409 6.9927 93.7087 7.54673 94.7208 9.07404L96.6025 0H104.614L99.5247 24.6017H91.9696L92.1977 22.6402ZM93.6232 13.4164C93.6232 12.4281 93.1385 11.8442 92.2262 11.8442C90.5584 11.8442 90.0309 13.3415 89.475 16.0518C88.9903 18.3577 88.8193 20.2594 90.5156 20.2594C91.4279 20.2594 91.8698 19.8551 92.1834 19.346C92.5256 18.8369 92.8392 17.8037 93.1955 16.0518C93.5234 14.5394 93.6232 14.1052 93.6232 13.4164ZM120.708 19.1214C119.311 22.9995 115.975 25.1258 109.731 25.1258C104.856 25.1258 100.95 22.8947 102.376 15.9769C103.602 10.0773 108.12 7.00768 114.079 7.00768C120.38 7.00768 122.718 10.3019 121.463 16.4111L121.221 17.5791H109.76L109.66 18.0582C109.247 20.0348 109.731 20.8733 111.328 20.8733C112.24 20.8733 113.21 20.3193 113.694 19.1214H120.708ZM114.749 13.9555L114.778 13.7009C115.12 12.0538 114.464 11.2153 113.21 11.2153C111.927 11.2153 110.872 12.0538 110.53 13.7009L110.501 13.9555H114.749ZM132.14 7.26223L131.342 11.1853H131.413C132.91 8.72965 134.891 6.85794 137.471 6.85794C137.956 6.85794 138.441 6.93281 138.754 7.03762L137.329 13.9854C136.987 13.8057 136.288 13.7309 135.519 13.7309C133.252 13.7309 130.914 15.7822 130.401 18.3427L129.118 24.6317H120.921L124.514 7.2772H132.14" fill="#052424"/>
<path d="M140.859 10.9388C140.859 9.14114 142.237 7.67639 143.929 7.67639C145.621 7.67639 147 9.14114 147 10.9388C147 12.7364 145.621 14.2012 143.929 14.2012C142.237 14.1346 140.859 12.7142 140.859 10.9388ZM146.624 10.9388C146.624 9.36307 145.454 8.12026 143.971 8.12026C142.488 8.12026 141.256 9.36307 141.256 10.9388C141.256 12.5145 142.425 13.8239 143.971 13.8239C145.392 13.7573 146.624 12.5145 146.624 10.9388ZM145.454 12.7142H144.932L143.971 11.0276H143.198V12.7142H142.781V9.09675H144.264C144.577 9.09675 144.828 9.09676 145.078 9.25211C145.329 9.40746 145.433 9.74036 145.433 10.0067C145.433 10.7169 144.974 10.9832 144.368 10.9832L145.454 12.7142ZM143.867 10.7169C144.326 10.7169 145.099 10.8278 145.099 10.0733C145.099 9.54062 144.64 9.42965 144.222 9.42965H143.261V10.7391H143.867V10.7169Z" fill="#052424"/>
<path d="M41.0671 0.959595C34.2982 1.94161 24.3837 4.47712 18.0474 8.66769L34.735 12.6658L34.1592 13.8173L16.8247 9.53201C12.4139 12.8723 10.3114 17.1647 13.4334 22.453C21.5998 36.286 59.1069 37.0379 68.8934 34.735L66.7825 38.9569C53.1571 41.7076 22.4522 43.2556 8.63501 27.4426C3.34264 21.3857 6.08878 14.2318 14.1313 8.86634L0 5.37343H20.7494C26.3293 3.043 33.2424 1.4233 41.0671 0.959595Z" fill="#052424"/>
</svg>
