<svg xmlns="http://www.w3.org/2000/svg" version="1.1" xmlns:xlink="http://www.w3.org/1999/xlink" width="64" height="64"><svg width="64" height="64" viewBox="0 0 64 64" fill="none" xmlns="http://www.w3.org/2000/svg">
<rect width="64" height="64" fill="#052424"></rect>
<path d="M54 21.1047C54 21.9331 53.3284 22.6047 52.5 22.6047H28.7442C27.4219 22.6047 26.7465 24.1912 27.6629 25.1443L37.8836 35.7738C38.1523 36.0532 38.3023 36.4258 38.3023 36.8135V52.5C38.3023 53.3284 37.6308 54 36.8023 54H26.1977C25.3692 54 24.6977 53.3284 24.6977 52.5V24.1047C24.6977 23.2762 24.0261 22.6047 23.1977 22.6047H10.5C9.67157 22.6047 9 21.9331 9 21.1047V10.5C9 9.67157 9.67157 9 10.5 9H24.1112C24.4883 9 24.8515 9.14203 25.1286 9.39779L35.7849 19.2344C36.7458 20.1213 38.3023 19.4398 38.3023 18.1322V10.5C38.3023 9.67157 38.9739 9 39.8023 9H52.5C53.3284 9 54 9.67157 54 10.5V21.1047Z" fill="white"></path>
</svg><style>@media (prefers-color-scheme: light) { :root { filter: none; } }
@media (prefers-color-scheme: dark) { :root { filter: none; } }
</style></svg>